<?xml version="1.0" encoding="UTF-8"?>
<svg xmlns="http://www.w3.org/2000/svg" xmlns:xlink="http://www.w3.org/1999/xlink" width="50px" height="58px" viewBox="0 0 50 57" version="1.1">
<g id="surface1">
<path style=" stroke:none;fill-rule:nonzero;fill:rgb(0%,0%,0%);fill-opacity:1;" d="M 25.011719 15.882812 C 17.914062 15.882812 12.1875 21.511719 12.1875 28.492188 C 12.1875 35.46875 17.914062 41.09375 25.011719 41.09375 C 32.109375 41.09375 37.835938 35.46875 37.835938 28.492188 C 37.835938 21.511719 32.109375 15.882812 25.011719 15.882812 Z M 25.011719 36.683594 C 20.421875 36.683594 16.671875 33.007812 16.671875 28.492188 C 16.671875 23.96875 20.414062 20.292969 25.011719 20.292969 C 29.609375 20.292969 33.347656 23.96875 33.347656 28.492188 C 33.347656 33.007812 29.597656 36.683594 25.011719 36.683594 Z M 41.351562 15.367188 C 41.351562 17.003906 40.011719 18.304688 38.359375 18.304688 C 36.695312 18.304688 35.367188 16.988281 35.367188 15.367188 C 35.367188 13.742188 36.707031 12.425781 38.359375 12.425781 C 40.011719 12.425781 41.351562 13.742188 41.351562 15.367188 Z M 49.84375 18.351562 C 49.65625 14.410156 48.738281 10.921875 45.804688 8.046875 C 42.878906 5.175781 39.328125 4.277344 35.324219 4.078125 C 31.195312 3.847656 18.816406 3.847656 14.6875 4.078125 C 10.691406 4.261719 7.140625 5.164062 4.207031 8.039062 C 1.273438 10.914062 0.367188 14.402344 0.167969 18.339844 C -0.0664062 22.402344 -0.0664062 34.566406 0.167969 38.625 C 0.359375 42.566406 1.273438 46.054688 4.207031 48.929688 C 7.140625 51.804688 10.679688 52.703125 14.6875 52.902344 C 18.816406 53.132812 31.195312 53.132812 35.324219 52.902344 C 39.328125 52.714844 42.878906 51.8125 45.804688 48.929688 C 48.726562 46.054688 49.640625 42.566406 49.84375 38.625 C 50.078125 34.566406 50.078125 22.410156 49.84375 18.351562 Z M 44.507812 42.980469 C 43.640625 45.132812 41.953125 46.789062 39.753906 47.65625 C 36.460938 48.9375 28.648438 48.640625 25.011719 48.640625 C 21.375 48.640625 13.546875 48.929688 10.265625 47.65625 C 8.078125 46.800781 6.394531 45.144531 5.515625 42.980469 C 4.207031 39.746094 4.507812 32.066406 4.507812 28.492188 C 4.507812 24.910156 4.21875 17.222656 5.515625 13.996094 C 6.382812 11.847656 8.070312 10.1875 10.265625 9.324219 C 13.5625 8.039062 21.375 8.335938 25.011719 8.335938 C 28.648438 8.335938 36.472656 8.046875 39.753906 9.324219 C 41.941406 10.175781 43.625 11.832031 44.507812 13.996094 C 45.8125 17.230469 45.515625 24.910156 45.515625 28.492188 C 45.515625 32.066406 45.8125 39.753906 44.507812 42.980469 Z M 44.507812 42.980469 "/>
</g>
</svg>
