<?xml version="1.0" encoding="UTF-8"?>
<svg xmlns="http://www.w3.org/2000/svg" xmlns:xlink="http://www.w3.org/1999/xlink" width="60px" height="69px" viewBox="0 0 60 68" version="1.1">
<g id="surface1">
<path style=" stroke:none;fill-rule:nonzero;fill:rgb(0%,0%,0%);fill-opacity:1;" d="M 30.011719 18.726562 C 21.496094 18.726562 14.625 25.539062 14.625 33.988281 C 14.625 42.433594 21.496094 49.246094 30.011719 49.246094 C 38.53125 49.246094 45.402344 42.433594 45.402344 33.988281 C 45.402344 25.539062 38.53125 18.726562 30.011719 18.726562 Z M 30.011719 43.90625 C 24.507812 43.90625 20.007812 39.457031 20.007812 33.988281 C 20.007812 28.515625 24.496094 24.066406 30.011719 24.066406 C 35.53125 24.066406 40.019531 28.515625 40.019531 33.988281 C 40.019531 39.457031 35.519531 43.90625 30.011719 43.90625 Z M 49.621094 18.101562 C 49.621094 20.082031 48.011719 21.660156 46.03125 21.660156 C 44.035156 21.660156 42.441406 20.066406 42.441406 18.101562 C 42.441406 16.136719 44.050781 14.542969 46.03125 14.542969 C 48.011719 14.542969 49.621094 16.136719 49.621094 18.101562 Z M 59.8125 21.714844 C 59.585938 16.945312 58.488281 12.722656 54.964844 9.242188 C 51.457031 5.765625 47.195312 4.675781 42.386719 4.4375 C 37.433594 4.15625 22.582031 4.15625 17.625 4.4375 C 12.832031 4.660156 8.570312 5.75 5.050781 9.230469 C 1.527344 12.710938 0.441406 16.933594 0.199219 21.703125 C -0.0820312 26.617188 -0.0820312 41.34375 0.199219 46.257812 C 0.429688 51.027344 1.527344 55.25 5.050781 58.730469 C 8.570312 62.210938 12.816406 63.296875 17.625 63.539062 C 22.582031 63.816406 37.433594 63.816406 42.386719 63.539062 C 47.195312 63.3125 51.457031 62.222656 54.964844 58.730469 C 58.472656 55.25 59.570312 51.027344 59.8125 46.257812 C 60.09375 41.34375 60.09375 26.628906 59.8125 21.714844 Z M 53.410156 51.53125 C 52.367188 54.132812 50.34375 56.140625 47.707031 57.1875 C 43.753906 58.742188 34.378906 58.382812 30.011719 58.382812 C 25.648438 58.382812 16.257812 58.730469 12.320312 57.1875 C 9.695312 56.152344 7.675781 54.148438 6.617188 51.53125 C 5.050781 47.613281 5.410156 38.316406 5.410156 33.988281 C 5.410156 29.65625 5.0625 20.347656 6.617188 16.441406 C 7.660156 13.839844 9.683594 11.832031 12.320312 10.785156 C 16.273438 9.230469 25.648438 9.589844 30.011719 9.589844 C 34.378906 9.589844 43.769531 9.242188 47.707031 10.785156 C 50.332031 11.820312 52.351562 13.824219 53.410156 16.441406 C 54.976562 20.359375 54.617188 29.65625 54.617188 33.988281 C 54.617188 38.316406 54.976562 47.625 53.410156 51.53125 Z M 53.410156 51.53125 "/>
</g>
</svg>
