<?xml version="1.0" encoding="UTF-8"?>
<svg xmlns="http://www.w3.org/2000/svg" xmlns:xlink="http://www.w3.org/1999/xlink" width="40px" height="54px" viewBox="0 0 40 53" version="1.1">
<g id="surface1">
<path style=" stroke:none;fill-rule:nonzero;fill:rgb(0%,0%,0%);fill-opacity:1;" d="M 22.46875 51.300781 C 27.8125 44.753906 40 28.886719 40 19.972656 C 40 9.164062 31.039062 0.394531 20 0.394531 C 8.960938 0.394531 0 9.164062 0 19.972656 C 0 28.886719 12.1875 44.753906 17.53125 51.300781 C 18.8125 52.859375 21.1875 52.859375 22.46875 51.300781 Z M 20 13.449219 C 23.679688 13.449219 26.664062 16.367188 26.664062 19.972656 C 26.664062 23.578125 23.679688 26.5 20 26.5 C 16.320312 26.5 13.335938 23.578125 13.335938 19.972656 C 13.335938 16.367188 16.320312 13.449219 20 13.449219 Z M 20 13.449219 "/>
</g>
</svg>
