<?xml version="1.0" encoding="UTF-8"?>
<svg xmlns="http://www.w3.org/2000/svg" xmlns:xlink="http://www.w3.org/1999/xlink" width="45px" height="52px" viewBox="0 0 45 52" version="1.1">
<g id="surface1">
<path style=" stroke:none;fill-rule:nonzero;fill:rgb(0%,0%,0%);fill-opacity:1;" d="M 45 21.46875 C 40.578125 21.476562 36.261719 20.121094 32.667969 17.597656 L 32.667969 35.191406 C 32.664062 41.859375 28.429688 47.824219 22.054688 50.160156 C 15.671875 52.5 8.484375 50.710938 4.015625 45.683594 C -0.460938 40.648438 -1.273438 33.429688 1.972656 27.566406 C 5.214844 21.699219 11.835938 18.421875 18.582031 19.339844 L 18.582031 28.183594 C 15.492188 27.234375 12.125 28.332031 10.242188 30.910156 C 8.355469 33.492188 8.375 36.960938 10.289062 39.523438 C 12.207031 42.078125 15.585938 43.144531 18.660156 42.160156 C 21.742188 41.171875 23.824219 38.359375 23.824219 35.191406 L 23.824219 0.820312 L 32.667969 0.820312 C 32.660156 1.550781 32.722656 2.285156 32.855469 3 C 33.480469 6.246094 35.433594 9.101562 38.269531 10.890625 C 40.265625 12.183594 42.605469 12.871094 45 12.867188 Z M 45 21.46875 "/>
</g>
</svg>
